# xmcd
#
# Track frame offsets:
#	150
#	22677
#	44578
#	64951
#	83120
#	111995
#	131225
#	144800
#	162852
#	181354
#	192148
#	194022
#
# Disc length: 2827 seconds
#
# Revision: 1
# Processed by: cddbd v1.4PL0 Copyright (c) Steve Scherf et al.
# Submitted via: audiograbber 1.80.04
#
DISCID=a70b090c
DTITLE=Megapearls - greatest hits
DYEAR=1900
DGENRE=
TTITLE0=journey into sound
TTITLE1=each days like tomorrow
TTITLE2=my heart is beating
TTITLE3=feelings inside
TTITLE4=trip
TTITLE5=i can see you
TTITLE6=session
TTITLE7=sound system
TTITLE8=rockin'
TTITLE9=2nd floor rock
TTITLE10=3rd floor rock
TTITLE11=facin' the crowd
EXTD=
EXTT0=
EXTT1=
EXTT2=
EXTT3=
EXTT4=
EXTT5=
EXTT6=
EXTT7=
EXTT8=
EXTT9=
EXTT10=
EXTT11=
PLAYORDER=
